<?xml version="1.0" encoding="UTF-8"?>
<svg version="1.1" xmlns="http://www.w3.org/2000/svg" width="200" height="28">
<path d="M0 0 C2.64 0 5.28 0 8 0 C8 0.66 8 1.32 8 2 C7.34 2 6.68 2 6 2 C6.33 5.96 6.66 9.92 7 14 C8.32 14.33 9.64 14.66 11 15 C11.33 10.71 11.66 6.42 12 2 C11.34 2 10.68 2 10 2 C10 1.34 10 0.68 10 0 C12.60444348 -0.05394705 15.20776998 -0.09364469 17.8125 -0.125 C18.55048828 -0.14175781 19.28847656 -0.15851563 20.04882812 -0.17578125 C23.91246426 -0.21074628 25.70903668 -0.19397555 29 2 C29.31845551 5.10494126 28.99424641 7.01726077 28 10 C28.87483915 12.16715557 28.87483915 12.16715557 30 14 C30.33 14 30.66 14 31 14 C31.33 10.04 31.66 6.08 32 2 C31.34 2 30.68 2 30 2 C30 1.34 30 0.68 30 0 C32.6875 -0.5 32.6875 -0.5 36 0 C38.08132026 2.45240837 39.55490096 5.1353789 41 8 C41.33 6.02 41.66 4.04 42 2 C41.34 2 40.68 2 40 2 C40 1.34 40 0.68 40 0 C48.25 0 56.5 0 65 0 C65.495 3.465 65.495 3.465 66 7 C66.66 7 67.32 7 68 7 C68.93423645 3.98968256 69.04449911 3.13349732 68 0 C69.65 0 71.3 0 73 0 C71.33333333 5 69.66666667 10 68 15 C68.66 15 69.32 15 70 15 C70 15.66 70 16.32 70 17 C67.69 17 65.38 17 63 17 C63.0928125 15.453125 63.0928125 15.453125 63.1875 13.875 C62.98864405 9.76531027 62.05532197 7.51117504 60 4 C58.68 4.33 57.36 4.66 56 5 C56 7.31 56 9.62 56 12 C55.01 12 54.02 12 53 12 C52.67 12.99 52.34 13.98 52 15 C53.98491642 14.73323796 53.98491642 14.73323796 56 14 C56.33 13.01 56.66 12.02 57 11 C57.66 11 58.32 11 59 11 C59 12.98 59 14.96 59 17 C54.71 17 50.42 17 46 17 C46 16.34 46 15.68 46 15 C46.66 15 47.32 15 48 15 C48 10.71 48 6.42 48 2 C46.68 2 45.36 2 44 2 C44 6.95 44 11.9 44 17 C40.33838422 15.77946141 39.83729526 14.63217696 37.8125 11.4375 C37.28269531 10.61121094 36.75289062 9.78492188 36.20703125 8.93359375 C35.80871094 8.29550781 35.41039062 7.65742188 35 7 C34.67 9.64 34.34 12.28 34 15 C34.66 15 35.32 15 36 15 C36 15.66 36 16.32 36 17 C32.7 17 29.4 17 26 17 C24 12.25 24 12.25 24 10 C23.01 10 22.02 10 21 10 C21 11.65 21 13.3 21 15 C21.66 15 22.32 15 23 15 C23 15.66 23 16.32 23 17 C20.69 17 18.38 17 16 17 C16 16.34 16 15.68 16 15 C16.66 15 17.32 15 18 15 C18 10.71 18 6.42 18 2 C16.68 2 15.36 2 14 2 C14.08701172 3.35544922 14.08701172 3.35544922 14.17578125 4.73828125 C14.22089844 5.91777344 14.26601562 7.09726563 14.3125 8.3125 C14.39951172 10.07013672 14.39951172 10.07013672 14.48828125 11.86328125 C14 15 14 15 11.6484375 16.95703125 C9 18 9 18 6.3125 17.375 C4 16 4 16 2 13 C1.62109375 10.37109375 1.62109375 10.37109375 1.4375 7.4375 C1.26070947 3.57339351 1.26070947 3.57339351 0 0 Z M21 2 C21 3.98 21 5.96 21 8 C22.32 7.67 23.64 7.34 25 7 C24.67 5.35 24.34 3.7 24 2 C23.01 2 22.02 2 21 2 Z M52 2 C52 3.65 52 5.3 52 7 C52.33 6.34 52.66 5.68 53 5 C53.99 5 54.98 5 56 5 C56 4.01 56 3.02 56 2 C54.68 2 53.36 2 52 2 Z " fill="#FFFFFF" transform="translate(111,4)"/>
<path d="M0 0 C0.99 0 1.98 0 3 0 C3.83739781 2.1234016 4.66980283 4.2487728 5.5 6.375 C5.9640625 7.55835938 6.428125 8.74171875 6.90625 9.9609375 C8 13 8 13 8 15 C8.66 15 9.32 15 10 15 C10.02703381 13.06257659 10.04641125 11.12504521 10.0625 9.1875 C10.07410156 8.10855469 10.08570312 7.02960937 10.09765625 5.91796875 C10.13624766 2.93487831 10.13624766 2.93487831 9 0 C11.1875 -0.4375 11.1875 -0.4375 14 0 C15.98441782 2.13995327 17.5023304 4.50175965 19 7 C19.15149298 3.37114676 19.15149298 3.37114676 18 0 C19.98 0 21.96 0 24 0 C24 4.95 24 9.9 24 15 C25.98 10.05 27.96 5.1 30 0 C30.99 0 31.98 0 33 0 C33.81289053 2.27069422 34.62532738 4.54154901 35.4375 6.8125 C35.66759766 7.45509766 35.89769531 8.09769531 36.13476562 8.75976562 C37.11417851 11.49928283 38.07995362 14.23986086 39 17 C37.02 17 35.04 17 33 17 C33 15.02 33 13.04 33 11 C31.35 11 29.7 11 28 11 C28.495 13.97 28.495 13.97 29 17 C25.84005495 17.56879011 23.13414169 17.7797133 20 17 C17.40155657 14.30706772 15.6833009 11.32699471 14 8 C13.67 10.31 13.34 12.62 13 15 C13.66 15 14.32 15 15 15 C15 15.66 15 16.32 15 17 C11.04 17 7.08 17 3 17 C3 15.02 3 13.04 3 11 C1.68 11.33 0.36 11.66 -1 12 C-1 13.65 -1 15.3 -1 17 C-2.65 17 -4.3 17 -6 17 C-4.13236819 11.27789404 -2.14710968 5.62338249 0 0 Z M30 6 C29.67 6.99 29.34 7.98 29 9 C29.99 8.67 30.98 8.34 32 8 C31.34 7.34 30.68 6.68 30 6 Z M0 7 C0 7.66 0 8.32 0 9 C0.66 9 1.32 9 2 9 C2 8.34 2 7.68 2 7 C1.34 7 0.68 7 0 7 Z " fill="#FFFFFF" transform="translate(44,4)"/>
<path d="M0 0 C6.27 0 12.54 0 19 0 C18.67 0.99 18.34 1.98 18 3 C19.37492804 6.1668838 19.37492804 6.1668838 21 9 C21.99 6.69 22.98 4.38 24 2 C23.34 2 22.68 2 22 2 C22 1.34 22 0.68 22 0 C23.98 0 25.96 0 28 0 C26.49637741 3.78716158 24.94512999 7.55245187 23.375 11.3125 C22.92898437 12.38113281 22.48296875 13.44976562 22.0234375 14.55078125 C21.51683594 15.76314453 21.51683594 15.76314453 21 17 C20.34 17 19.68 17 19 17 C18.16013916 15.06532058 17.32831973 13.12714871 16.5 11.1875 C16.0359375 10.10855469 15.571875 9.02960937 15.09375 7.91796875 C14 5 14 5 14 2 C13.34 2 12.68 2 12 2 C12 2.99 12 3.98 12 5 C11.34 5 10.68 5 10 5 C10 4.01 10 3.02 10 2 C8.35 2 6.7 2 5 2 C5 3.65 5 5.3 5 7 C5.66 7 6.32 7 7 7 C7 6.34 7 5.68 7 5 C7.66 5 8.32 5 9 5 C9 7.31 9 9.62 9 12 C8.34 12 7.68 12 7 12 C6.67 11.34 6.34 10.68 6 10 C5.67 11.65 5.34 13.3 5 15 C6.65 15 8.3 15 10 15 C10.33 13.68 10.66 12.36 11 11 C11.66 11 12.32 11 13 11 C13 12.98 13 14.96 13 17 C8.71 17 4.42 17 0 17 C0 11.39 0 5.78 0 0 Z " fill="#FFFFFF" transform="translate(13,4)"/>
<path d="M0 0 C3.5 1.25 3.5 1.25 5.5 4.25 C6.17883158 8.53611103 6.27297306 12.10485473 3.8125 15.75 C1.1866223 17.45327202 -0.36223238 18.17346908 -3.5 18.25 C-8.09701493 16.05597015 -8.09701493 16.05597015 -9.5 13.25 C-10.01968957 8.8368984 -10.35380637 5.38840849 -7.625 1.75 C-3.94748858 -0.84589041 -3.94748858 -0.84589041 0 0 Z M-4.5 2.25 C-6.53844169 6.32688338 -6.57759755 8.84164639 -5.5 13.25 C-5.17 13.91 -4.84 14.57 -4.5 15.25 C-2.85 15.25 -1.2 15.25 0.5 15.25 C1.68306728 12.88386544 1.63354608 11.38219264 1.625 8.75 C1.62757812 7.9559375 1.63015625 7.161875 1.6328125 6.34375 C1.63277996 4.19081466 1.63277996 4.19081466 0.5 2.25 C-1.15 2.25 -2.8 2.25 -4.5 2.25 Z " fill="#FFFFFF" transform="translate(105.5,3.75)"/>
<path d="M0 0 C0 1.98 0 3.96 0 6 C-0.99 6 -1.98 6 -3 6 C-3 4.68 -3 3.36 -3 2 C-4.32 2 -5.64 2 -7 2 C-6.67 2.99 -6.34 3.98 -6 5 C-5.175 5.4125 -4.35 5.825 -3.5 6.25 C-1 8 -1 8 -0.1875 11.6875 C-0.125625 12.780625 -0.06375 13.87375 0 15 C-1.5625 16.5625 -1.5625 16.5625 -4 18 C-7.75 17.6875 -7.75 17.6875 -11 17 C-11 15.02 -11 13.04 -11 11 C-10.01 11 -9.02 11 -8 11 C-7.67 11.99 -7.34 12.98 -7 14 C-4.98491642 14.73323796 -4.98491642 14.73323796 -3 15 C-4.13036845 12.12269848 -5.07540136 10.94115016 -7.5625 9 C-10 7 -10 7 -10.9375 4.9375 C-11 3 -11 3 -9 0 C-5.52176885 -1.15941038 -3.54104422 -0.70820884 0 0 Z " fill="#FFFFFF" transform="translate(195,4)"/>
<path d="M0 0 C2.31 0 4.62 0 7 0 C6.91262287 2.56406672 6.80570881 5.12482216 6.6875 7.6875 C6.66494141 8.40873047 6.64238281 9.12996094 6.61914062 9.87304688 C6.39828077 14.27016583 5.99071648 17.53022139 3 21 C1.68 21 0.36 21 -1 21 C-1 20.34 -1 19.68 -1 19 C-0.34 18.67 0.32 18.34 1 18 C1.31241455 15.28553021 1.51336592 12.66090639 1.625 9.9375 C1.66367188 9.17888672 1.70234375 8.42027344 1.7421875 7.63867188 C1.83673562 5.75952805 1.91946756 3.87979664 2 2 C1.34 2 0.68 2 0 2 C0 1.34 0 0.68 0 0 Z " fill="#FFFFFF" transform="translate(5,4)"/>
<path d="M0 0 C2.31 0 4.62 0 7 0 C7 0.66 7 1.32 7 2 C6.34 2 5.68 2 5 2 C5.02320312 3.12019531 5.04640625 4.24039062 5.0703125 5.39453125 C5.08907237 6.86718084 5.10727234 8.33983763 5.125 9.8125 C5.14175781 10.55048828 5.15851563 11.28847656 5.17578125 12.04882812 C5.21074628 15.91246426 5.19397555 17.70903668 3 21 C1.68 21 0.36 21 -1 21 C-1 20.34 -1 19.68 -1 19 C-0.34 19 0.32 19 1 19 C1.33 13.39 1.66 7.78 2 2 C1.34 2 0.68 2 0 2 C0 1.34 0 0.68 0 0 Z " fill="#FFFFFF" transform="translate(88,4)"/>
</svg>
