<?xml version="1.0" encoding="UTF-8"?>
<svg version="1.1" xmlns="http://www.w3.org/2000/svg" width="200" height="28">
<path d="M0 0 C1.98 0 3.96 0 6 0 C6 5 6 10 6 15 C7.32 14.67 8.64 14.34 10 14 C10.33 10.37 10.66 6.74 11 3 C10.34 3 9.68 3 9 3 C9 2.34 9 1.68 9 1 C11.06093408 0.776707 13.1238839 0.57197113 15.1875 0.375 C16.33605469 0.25898437 17.48460937 0.14296875 18.66796875 0.0234375 C22.06472049 -0.00045524 24.04061803 0.3709824 27 2 C28.25219556 5.39881653 27.90851236 7.59307866 27 11 C27.33 11.99 27.66 12.98 28 14 C28.66 14.33 29.32 14.66 30 15 C30.02694851 13.04174127 30.04637218 11.08337774 30.0625 9.125 C30.07990234 7.48917969 30.07990234 7.48917969 30.09765625 5.8203125 C30.19744303 3.04822454 30.19744303 3.04822454 29 1 C31.6875 0.5625 31.6875 0.5625 35 1 C37.04775301 3.11124923 38.53480226 5.45859507 40 8 C40.33 6.35 40.66 4.7 41 3 C40.34 3 39.68 3 39 3 C39 2.34 39 1.68 39 1 C44.81215618 0.1083624 50.146336 -0.00380742 56 0.4375 C57.16208984 0.51581055 57.16208984 0.51581055 58.34765625 0.59570312 C60.23224487 0.72366902 62.11620371 0.86085596 64 1 C64.2165625 2.2065625 64.2165625 2.2065625 64.4375 3.4375 C64.74135249 5.92103706 64.74135249 5.92103706 66 7 C66.33 5.02 66.66 3.04 67 1 C68.65 1 70.3 1 72 1 C71.07361787 3.38212548 70.16764006 5.69430342 68.9375 7.9375 C67.73861104 10.57505571 67.38972169 13.14204094 67 16 C67.66 16 68.32 16 69 16 C69 16.66 69 17.32 69 18 C66.69 18 64.38 18 62 18 C62.0928125 16.205625 62.0928125 16.205625 62.1875 14.375 C62.20943937 10.26502405 61.13130434 7.5521739 59 4 C58.67 4.66 58.34 5.32 58 6 C57.34 6 56.68 6 56 6 C55.67 8.31 55.34 10.62 55 13 C54.01 12.67 53.02 12.34 52 12 C51.67 13.32 51.34 14.64 51 16 C52.98491642 15.73323796 52.98491642 15.73323796 55 15 C55.33 14.01 55.66 13.02 56 12 C56.66 12 57.32 12 58 12 C58 13.98 58 15.96 58 18 C53.71 18 49.42 18 45 18 C45 17.34 45 16.68 45 16 C45.66 16 46.32 16 47 16 C47 11.71 47 7.42 47 3 C45.68 3 44.36 3 43 3 C43 7.95 43 12.9 43 18 C39.17946076 16.72648692 38.76978625 15.37362475 36.8125 11.9375 C36.28269531 11.01839844 35.75289062 10.09929688 35.20703125 9.15234375 C34.80871094 8.44207031 34.41039062 7.73179688 34 7 C33.979375 8.258125 33.95875 9.51625 33.9375 10.8125 C33.92589844 11.52019531 33.91429687 12.22789063 33.90234375 12.95703125 C33.91736783 15.20305461 33.91736783 15.20305461 35 18 C31.7 18 28.4 18 25 18 C24.34 15.69 23.68 13.38 23 11 C22.01 11 21.02 11 20 11 C20.66 13.31 21.32 15.62 22 18 C19.69 18 17.38 18 15 18 C15 17.34 15 16.68 15 16 C15.66 16 16.32 16 17 16 C17 11.71 17 7.42 17 3 C15.68 3 14.36 3 13 3 C13.03480469 3.83144531 13.06960937 4.66289063 13.10546875 5.51953125 C13.13253906 6.60621094 13.15960938 7.69289063 13.1875 8.8125 C13.22230469 9.89144531 13.25710937 10.97039063 13.29296875 12.08203125 C13 15 13 15 11.67578125 16.859375 C9.03695662 18.65549806 7.09517555 18.45137977 4 18 C1.06220231 14.99939903 0.56470255 12.55680838 0.3125 8.4375 C0.24675781 7.48746094 0.18101563 6.53742187 0.11328125 5.55859375 C0.03130929 3.7071582 0 1.85324931 0 0 Z M20 3 C20 4.65 20 6.3 20 8 C21.32 8 22.64 8 24 8 C24 6.35 24 4.7 24 3 C22.68 3 21.36 3 20 3 Z M51 3 C51 4.65 51 6.3 51 8 C53.0399719 6.63676257 53.0399719 6.63676257 55 5 C55 4.34 55 3.68 55 3 C53.68 3 52.36 3 51 3 Z " fill="#000000" transform="translate(112,3)"/>
<path d="M0 0 C0.99 0 1.98 0 3 0 C3.83739781 2.1234016 4.66980283 4.2487728 5.5 6.375 C5.9640625 7.55835938 6.428125 8.74171875 6.90625 9.9609375 C8 13 8 13 8 15 C8.66 15 9.32 15 10 15 C10.02703381 13.06257659 10.04641125 11.12504521 10.0625 9.1875 C10.07410156 8.10855469 10.08570312 7.02960937 10.09765625 5.91796875 C10.13624766 2.93487831 10.13624766 2.93487831 9 0 C11.1875 -0.4375 11.1875 -0.4375 14 0 C15.98441782 2.13995327 17.5023304 4.50175965 19 7 C19.15149298 3.37114676 19.15149298 3.37114676 18 0 C19.98 0 21.96 0 24 0 C23.67 4.95 23.34 9.9 23 15 C23.66 15 24.32 15 25 15 C25.12246094 14.28457031 25.24492188 13.56914062 25.37109375 12.83203125 C26.01135375 9.94887287 26.93551556 7.41407527 28.0625 4.6875 C28.60583984 3.36298828 28.60583984 3.36298828 29.16015625 2.01171875 C29.43730469 1.34785156 29.71445313 0.68398437 30 0 C30.99 0 31.98 0 33 0 C34.00419637 2.4566947 35.00350501 4.91518353 36 7.375 C36.28617188 8.07367188 36.57234375 8.77234375 36.8671875 9.4921875 C39 14.7734375 39 14.7734375 39 17 C37.02 17 35.04 17 33 17 C33 15.02 33 13.04 33 11 C31.35 11 29.7 11 28 11 C28.495 13.97 28.495 13.97 29 17 C25.81176617 17.63764677 23.15600623 17.87239197 20 17 C17.36391376 13.96450676 15.66022399 10.64598209 14 7 C13.67 9.64 13.34 12.28 13 15 C13.66 15 14.32 15 15 15 C15 15.66 15 16.32 15 17 C11.04 17 7.08 17 3 17 C3 15.02 3 13.04 3 11 C1.35 11 -0.3 11 -2 11 C-1.67 12.98 -1.34 14.96 -1 17 C-2.65 17 -4.3 17 -6 17 C-4.13236819 11.27789404 -2.14710968 5.62338249 0 0 Z M0 6 C0 6.99 0 7.98 0 9 C0.66 9 1.32 9 2 9 C1.67 8.01 1.34 7.02 1 6 C0.67 6 0.34 6 0 6 Z M30 6 C29.67 6.99 29.34 7.98 29 9 C29.99 8.67 30.98 8.34 32 8 C31.34 7.34 30.68 6.68 30 6 Z " fill="#000000" transform="translate(44,4)"/>
<path d="M0 0 C6.27 0.33 12.54 0.66 19 1 C19.33 3.64 19.66 6.28 20 9 C20.33 9.33 20.66 9.66 21 10 C21.99 7.69 22.98 5.38 24 3 C23.34 3 22.68 3 22 3 C22.33 2.01 22.66 1.02 23 0 C25.475 0.495 25.475 0.495 28 1 C28 1.66 28 2.32 28 3 C27.34 3 26.68 3 26 3 C25.9175 3.804375 25.835 4.60875 25.75 5.4375 C24.79803325 9.95934205 22.98419821 13.84702701 21 18 C20.34 18 19.68 18 19 18 C17.02 13.05 15.04 8.1 13 3 C12.67 3.99 12.34 4.98 12 6 C11.34 6 10.68 6 10 6 C10 5.01 10 4.02 10 3 C8.35 3 6.7 3 5 3 C5 4.65 5 6.3 5 8 C5.66 8 6.32 8 7 8 C7 7.01 7 6.02 7 5 C7.66 5 8.32 5 9 5 C9 7.64 9 10.28 9 13 C8.34 13 7.68 13 7 13 C7 12.01 7 11.02 7 10 C6.34 10 5.68 10 5 10 C5 11.98 5 13.96 5 16 C6.98491642 15.73323796 6.98491642 15.73323796 9 15 C9.33 14.01 9.66 13.02 10 12 C10.99 12 11.98 12 13 12 C13 13.98 13 15.96 13 18 C8.71 18 4.42 18 0 18 C0 12.06 0 6.12 0 0 Z " fill="#000000" transform="translate(13,3)"/>
<path d="M0 0 C3.375 1.0625 3.375 1.0625 5.3125 2.625 C6.84015217 6.12961379 7.02254204 9.34649171 6.375 13.0625 C4.8125 16.0625 4.8125 16.0625 2.375 18.0625 C-1.52626052 18.6894883 -3.64193383 18.64225697 -7.0625 16.625 C-9.39049316 12.80709121 -9.50590879 9.41295304 -8.625 5.0625 C-5.97979115 1.0546078 -4.83605044 0.08338018 0 0 Z M-4.625 4.0625 C-5.69181329 8.10115032 -6.04605712 10.20207894 -4.1875 14 C-3.671875 14.680625 -3.15625 15.36125 -2.625 16.0625 C0.13141416 15.56493908 0.13141416 15.56493908 2.375 14.0625 C2.61320921 12.02979438 2.61320921 12.02979438 2.625 9.6875 C2.65078125 8.89601563 2.6765625 8.10453125 2.703125 7.2890625 C2.30398802 4.58063298 1.49936825 3.72551555 -0.625 2.0625 C-2.08725016 1.97004997 -2.08725016 1.97004997 -4.625 4.0625 Z " fill="#000000" transform="translate(104.625,2.9375)"/>
<path d="M0 0 C0 1.65 0 3.3 0 5 C-0.99 5 -1.98 5 -3 5 C-3 4.01 -3 3.02 -3 2 C-3.99 2 -4.98 2 -6 2 C-6 2.99 -6 3.98 -6 5 C-5.01 5.598125 -4.02 6.19625 -3 6.8125 C0 9 0 9 0.5 12.125 C0 15 0 15 -2 17 C-4.1640625 17.1953125 -4.1640625 17.1953125 -6.625 17.125 C-7.44226563 17.10695313 -8.25953125 17.08890625 -9.1015625 17.0703125 C-9.72804687 17.04710938 -10.35453125 17.02390625 -11 17 C-11 14.69 -11 12.38 -11 10 C-10.01 10.33 -9.02 10.66 -8 11 C-7.67 11.99 -7.34 12.98 -7 14 C-6.01 14 -5.02 14 -4 14 C-5.55500981 10.18315774 -8.03595495 7.80804268 -11 5 C-8.6102683 -1.65710974 -6.76304013 -1.12717335 0 0 Z " fill="#000000" transform="translate(195,4)"/>
<path d="M0 0 C1.98 0 3.96 0 6 0 C5.88588196 2.75084547 5.75914051 5.50011947 5.625 8.25 C5.5940625 9.02730469 5.563125 9.80460938 5.53125 10.60546875 C5.14485378 18.14019495 5.14485378 18.14019495 3 21 C0.375 21.75 0.375 21.75 -2 22 C-2 21.34 -2 20.68 -2 20 C-1.34 19.67 -0.68 19.34 0 19 C0.31241455 16.28553021 0.51336592 13.66090639 0.625 10.9375 C0.66367188 10.17888672 0.70234375 9.42027344 0.7421875 8.63867188 C0.83673562 6.75952805 0.91946756 4.87979664 1 3 C0.34 3 -0.32 3 -1 3 C-0.67 2.01 -0.34 1.02 0 0 Z " fill="#000000" transform="translate(6,3)"/>
<path d="M0 0 C2.31 0 4.62 0 7 0 C7 0.66 7 1.32 7 2 C6.34 2 5.68 2 5 2 C5.03480469 3.12019531 5.06960937 4.24039062 5.10546875 5.39453125 C5.13360839 6.86717251 5.16090837 8.33982998 5.1875 9.8125 C5.22520508 10.91948242 5.22520508 10.91948242 5.26367188 12.04882812 C5.33749706 17.48728323 5.33749706 17.48728323 3.67578125 20.01171875 C2 21 2 21 -1 21 C-1 20.34 -1 19.68 -1 19 C-0.34 19 0.32 19 1 19 C1.33 13.39 1.66 7.78 2 2 C1.34 2 0.68 2 0 2 C0 1.34 0 0.68 0 0 Z " fill="#000000" transform="translate(88,4)"/>
</svg>
